<svg width="584" height="186" viewBox="0 0 584 186" fill="none" xmlns="http://www.w3.org/2000/svg">
<path d="M384 54C376 53.5 378.5 47.5 384 47.5L583.5 51.5L384 54Z" fill="#DC3545"/>
<path d="M346.766 38C339.297 37.5385 341.631 32 346.766 32L533 35.6923L346.766 38Z" fill="#DC3545"/>
<path d="M154.5 58H129L209.5 0.5L557 7.5V10L214 15.5L154.5 58Z" fill="#DC3545"/>
<path d="M536.5 145.5H523.5C525.9 111.9 502.5 86.8333 490.5 78.5H551V131.5L536.5 145.5Z" fill="#DC3545"/>
<path d="M389 78.5H421C391.4 94.1 386.667 129 388 144.5H342L389 78.5Z" fill="#DC3545"/>
<path d="M218 144.5C219.6 108.9 197 85.6667 185.5 78.5H353.5L359 86L315.5 144.5H218Z" fill="#DC3545"/>
<path d="M115 79C84.6002 95.4 80.6669 130.167 82.5002 145.5H0.5V91.5L33.5 78.5L115 79Z" fill="#DC3545"/>
<circle cx="150.5" cy="137.5" r="48.5" fill="#DC3545"/>
<circle cx="455.5" cy="137.5" r="48.5" fill="#DC3545"/>
</svg>
